<svg width="544" height="253" viewBox="0 0 544 253" fill="none" xmlns="http://www.w3.org/2000/svg">
<path d="M40.3133 77.5H3.25C2.79864 77.5 2.57217 78.0574 2.88293 78.3847C10.5834 86.4961 13 99.7335 13 106V169.5C13 177.81 6.74841 185.551 3.69051 189.182C3.41666 189.507 3.6496 190 4.07472 190H40.223C40.7279 190 40.9411 189.295 40.5458 188.981C34.373 184.074 31.62 174.15 31 169.5C30.3333 164.5 30 124 30.5 106C30.9413 90.113 36.9654 81.7564 40.6655 78.5236C41.0404 78.1962 40.811 77.5 40.3133 77.5Z" fill="#028066"/>
<path d="M100.223 151.972L88 190H53.3987C52.8998 190.035 52.4334 190.036 52 190H53.3987C55.7379 189.835 58.7908 188.913 62.5 187.5C67.7976 185.482 74.3736 182.268 81.2369 176C85.9935 171.656 90.0428 166.084 95 159C96.0033 157.566 97.8322 154.35 99.4012 151.605C99.6948 151.092 100.404 151.409 100.223 151.972Z" fill="#028066"/>
<path d="M264.42 232.639C246.05 173.769 224.18 104.83 205.5 45C211.03 45 226.95 45 226.95 45L231 61.5L253.5 133C260.96 156.99 269.5 183 269.5 183L272 193C272 193 273.62 190.12 274 189C274.38 187.88 299.5 113 299.5 113L322 45.5L329 46C329 46 285.85 173.749 265.7 232.849L264.42 232.629V232.639Z" fill="#028066"/>
<path d="M137 78.003H162.993H170.851V101C170.851 101 171.899 100.138 168.433 95.8895C166.794 93.8801 164.629 90.3197 159.97 87.2018C153.763 83.0475 149.694 81.7259 143.045 79.5361C137.957 77.8606 137 78.003 137 78.003Z" fill="#028066"/>
<path d="M353 78.003H378.993H386.851V101C386.851 101 387.899 100.138 384.433 95.8895C382.794 93.8801 380.629 90.3197 375.97 87.2018C369.763 83.0475 365.694 81.7259 359.045 79.5361C353.957 77.8606 353 78.003 353 78.003Z" fill="#028066"/>
<path d="M137 189.997H162.993H170.851V167C170.851 167 171.899 167.862 168.433 172.11C166.794 174.12 164.629 177.68 159.97 180.798C153.763 184.952 149.694 186.274 143.045 188.464C137.957 190.139 137 189.997 137 189.997Z" fill="#028066"/>
<path d="M353 189.997H378.993H386.851V167C386.851 167 387.899 167.862 384.433 172.11C382.794 174.12 380.629 177.68 375.97 180.798C369.763 184.952 365.694 186.274 359.045 188.464C353.957 190.139 353 189.997 353 189.997Z" fill="#028066"/>
<path d="M165 120V138C158.304 131.5 146.93 131.067 137 129.183C146.893 127.173 156.478 125.5 165 120Z" fill="#028066"/>
<path d="M381 120V138C374.304 131.5 362.93 131.067 353 129.183C362.893 127.173 372.478 125.5 381 120Z" fill="#028066"/>
<path d="M534 78.5H511L512 117C512.8 93.4 527 81.5 534 78.5Z" fill="#028066"/>
<path d="M426 189.5H449L448 151C447.2 174.6 433 186.5 426 189.5Z" fill="#028066"/>
<path d="M419.5 79.5V77.5H453L516 157.5V190L445.5 101C434.7 83.8 427.333 79.5 425 79.5H419.5Z" fill="#028066"/>
<path d="M344 232.031C344 229.758 344.513 227.718 345.538 225.913C346.563 224.085 347.956 222.659 349.717 221.633C351.5 220.608 353.473 220.096 355.635 220.096C358.176 220.096 360.394 220.708 362.288 221.934C364.183 223.16 365.565 224.899 366.434 227.15H362.79C362.143 225.746 361.207 224.665 359.981 223.907C358.778 223.149 357.329 222.77 355.635 222.77C354.008 222.77 352.548 223.149 351.255 223.907C349.962 224.665 348.948 225.746 348.213 227.15C347.477 228.532 347.109 230.159 347.109 232.031C347.109 233.881 347.477 235.508 348.213 236.913C348.948 238.295 349.962 239.364 351.255 240.122C352.548 240.88 354.008 241.259 355.635 241.259C357.329 241.259 358.778 240.891 359.981 240.156C361.207 239.398 362.143 238.317 362.79 236.913H366.434C365.565 239.142 364.183 240.869 362.288 242.095C360.394 243.299 358.176 243.9 355.635 243.9C353.473 243.9 351.5 243.399 349.717 242.396C347.956 241.37 346.563 239.955 345.538 238.15C344.513 236.344 344 234.305 344 232.031Z" fill="#028066"/>
<path d="M369.826 234.472C369.826 232.6 370.205 230.961 370.963 229.557C371.721 228.131 372.757 227.027 374.072 226.247C375.41 225.467 376.892 225.077 378.519 225.077C380.124 225.077 381.517 225.423 382.698 226.114C383.88 226.805 384.76 227.674 385.339 228.721V225.378H388.415V243.7H385.339V240.289C384.738 241.359 383.835 242.251 382.631 242.964C381.45 243.655 380.068 244.001 378.486 244.001C376.858 244.001 375.387 243.599 374.072 242.797C372.757 241.995 371.721 240.869 370.963 239.42C370.205 237.971 369.826 236.322 369.826 234.472ZM385.339 234.505C385.339 233.124 385.061 231.92 384.504 230.895C383.946 229.869 383.189 229.089 382.23 228.554C381.294 227.997 380.258 227.718 379.121 227.718C377.984 227.718 376.948 227.986 376.011 228.521C375.075 229.056 374.329 229.836 373.771 230.861C373.214 231.886 372.936 233.09 372.936 234.472C372.936 235.876 373.214 237.102 373.771 238.15C374.329 239.175 375.075 239.966 376.011 240.524C376.948 241.058 377.984 241.326 379.121 241.326C380.258 241.326 381.294 241.058 382.23 240.524C383.189 239.966 383.946 239.175 384.504 238.15C385.061 237.102 385.339 235.887 385.339 234.505Z" fill="#028066"/>
<path d="M401.013 227.886H397.168V243.7H394.125V227.886H391.751V225.378H394.125V224.074C394.125 222.024 394.649 220.53 395.697 219.594C396.767 218.636 398.472 218.156 400.812 218.156V220.697C399.475 220.697 398.527 220.965 397.97 221.5C397.435 222.012 397.168 222.871 397.168 224.074V225.378H401.013V227.886Z" fill="#028066"/>
<path d="M421.277 233.837C421.277 234.416 421.243 235.029 421.177 235.676H406.533C406.644 237.481 407.257 238.896 408.371 239.922C409.508 240.925 410.879 241.426 412.484 241.426C413.799 241.426 414.891 241.125 415.76 240.524C416.652 239.899 417.276 239.075 417.633 238.049H420.909C420.419 239.81 419.438 241.248 417.967 242.362C416.496 243.455 414.668 244.001 412.484 244.001C410.745 244.001 409.185 243.611 407.803 242.83C406.443 242.05 405.374 240.947 404.593 239.52C403.813 238.072 403.423 236.4 403.423 234.505C403.423 232.611 403.802 230.95 404.56 229.524C405.318 228.097 406.377 227.005 407.736 226.247C409.118 225.467 410.701 225.077 412.484 225.077C414.222 225.077 415.76 225.456 417.098 226.214C418.435 226.972 419.46 228.019 420.174 229.357C420.909 230.672 421.277 232.165 421.277 233.837ZM418.134 233.202C418.134 232.042 417.878 231.051 417.365 230.226C416.852 229.379 416.15 228.744 415.259 228.32C414.389 227.874 413.42 227.652 412.35 227.652C410.812 227.652 409.497 228.142 408.405 229.123C407.335 230.103 406.722 231.463 406.566 233.202H418.134Z" fill="#028066"/>
<path d="M445.875 231.697C446.722 231.831 447.491 232.176 448.182 232.733C448.895 233.291 449.452 233.982 449.853 234.806C450.277 235.631 450.488 236.511 450.488 237.448C450.488 238.629 450.188 239.699 449.586 240.657C448.984 241.593 448.104 242.34 446.945 242.897C445.808 243.432 444.459 243.7 442.899 243.7H434.206V220.396H442.565C444.147 220.396 445.496 220.664 446.61 221.199C447.725 221.711 448.56 222.414 449.118 223.305C449.675 224.197 449.954 225.2 449.954 226.314C449.954 227.696 449.575 228.844 448.817 229.758C448.081 230.649 447.101 231.296 445.875 231.697ZM437.249 230.46H442.364C443.791 230.46 444.894 230.126 445.674 229.457C446.454 228.788 446.844 227.863 446.844 226.682C446.844 225.501 446.454 224.576 445.674 223.907C444.894 223.238 443.768 222.904 442.297 222.904H437.249V230.46ZM442.632 241.192C444.147 241.192 445.329 240.836 446.176 240.122C447.023 239.409 447.446 238.417 447.446 237.147C447.446 235.854 447 234.84 446.109 234.104C445.217 233.346 444.025 232.967 442.531 232.967H437.249V241.192H442.632Z" fill="#028066"/>
<path d="M453.574 234.472C453.574 232.6 453.953 230.961 454.711 229.557C455.468 228.131 456.505 227.027 457.82 226.247C459.157 225.467 460.639 225.077 462.267 225.077C463.871 225.077 465.264 225.423 466.446 226.114C467.627 226.805 468.508 227.674 469.087 228.721V225.378H472.163V243.7H469.087V240.289C468.485 241.359 467.583 242.251 466.379 242.964C465.198 243.655 463.816 244.001 462.233 244.001C460.606 244.001 459.135 243.599 457.82 242.797C456.505 241.995 455.468 240.869 454.711 239.42C453.953 237.971 453.574 236.322 453.574 234.472ZM469.087 234.505C469.087 233.124 468.808 231.92 468.251 230.895C467.694 229.869 466.936 229.089 465.978 228.554C465.042 227.997 464.005 227.718 462.868 227.718C461.732 227.718 460.695 227.986 459.759 228.521C458.823 229.056 458.076 229.836 457.519 230.861C456.962 231.886 456.683 233.09 456.683 234.472C456.683 235.876 456.962 237.102 457.519 238.15C458.076 239.175 458.823 239.966 459.759 240.524C460.695 241.058 461.732 241.326 462.868 241.326C464.005 241.326 465.042 241.058 465.978 240.524C466.936 239.966 467.694 239.175 468.251 238.15C468.808 237.102 469.087 235.887 469.087 234.505Z" fill="#028066"/>
<path d="M487.535 243.7L480.347 235.609V243.7H477.304V218.959H480.347V233.502L487.401 225.378H491.647L483.022 234.505L491.681 243.7H487.535Z" fill="#028066"/>
<path d="M511.228 233.837C511.228 234.416 511.194 235.029 511.128 235.676H496.484C496.595 237.481 497.208 238.896 498.322 239.922C499.459 240.925 500.83 241.426 502.435 241.426C503.75 241.426 504.842 241.125 505.711 240.524C506.603 239.899 507.227 239.075 507.584 238.049H510.86C510.37 239.81 509.389 241.248 507.918 242.362C506.447 243.455 504.619 244.001 502.435 244.001C500.696 244.001 499.136 243.611 497.754 242.83C496.394 242.05 495.325 240.947 494.544 239.52C493.764 238.072 493.374 236.4 493.374 234.505C493.374 232.611 493.753 230.95 494.511 229.524C495.269 228.097 496.328 227.005 497.687 226.247C499.069 225.467 500.652 225.077 502.435 225.077C504.173 225.077 505.711 225.456 507.049 226.214C508.386 226.972 509.411 228.019 510.125 229.357C510.86 230.672 511.228 232.165 511.228 233.837ZM508.085 233.202C508.085 232.042 507.829 231.051 507.316 230.226C506.803 229.379 506.101 228.744 505.21 228.32C504.341 227.874 503.371 227.652 502.301 227.652C500.763 227.652 499.448 228.142 498.356 229.123C497.286 230.103 496.673 231.463 496.517 233.202H508.085Z" fill="#028066"/>
<path d="M518.286 228.354C518.821 227.306 519.579 226.492 520.56 225.913C521.563 225.333 522.778 225.044 524.204 225.044V228.186H523.402C519.991 228.186 518.286 230.036 518.286 233.736V243.7H515.244V225.378H518.286V228.354Z" fill="#028066"/>
<path d="M543.497 225.378L532.464 252.326H529.321L532.932 243.499L525.543 225.378H528.92L534.67 240.223L540.354 225.378H543.497Z" fill="#028066"/>
<path d="M408.94 221.633L409.558 223.166L413.017 218.781L412.299 217L408.94 221.633Z" fill="#028066"/>
<path d="M21.9571 46.7822C20.6621 47.6201 19.2784 47.8486 17.8057 47.4678C16.3584 47.1123 15.2412 46.3125 14.4541 45.0684C13.5655 43.7734 13.4385 41.5137 14.0733 38.2891C11.9405 42.5293 9.98538 45.3604 8.20804 46.7822C6.9639 47.6709 5.6055 47.9248 4.13284 47.5439C2.6348 47.1885 1.50491 46.3633 0.743194 45.0684C-0.602509 43.0371 0.0195613 37.6797 2.60941 28.9961L5.27542 19.9316H5.42776C5.58011 19.9316 5.77054 19.9189 5.99905 19.8936C6.22757 19.8682 6.49417 19.8555 6.79886 19.8555H9.00784C10.0996 19.9062 10.6836 20.541 10.7598 21.7598C10.836 23.0039 10.4043 25.1494 9.46487 28.1963C8.72855 29.6689 7.83987 33.3887 6.79886 39.3555C6.54495 40.8789 6.65921 41.7803 7.14163 42.0596C7.59866 42.3389 8.44925 41.8311 9.69339 40.5361C11.7754 38.1494 13.8828 34.6709 16.0157 30.1006L16.3203 28.9961L18.9864 19.9316H19.1387C19.291 19.9316 19.4815 19.9189 19.71 19.8936C19.9639 19.8682 20.2432 19.8555 20.5479 19.8555H22.7188C23.8106 19.9062 24.3946 20.541 24.4707 21.7598C24.5469 23.0039 24.128 25.1494 23.2139 28.1963C22.4776 29.6689 21.5889 33.3887 20.5479 39.3555C20.294 40.8789 20.3955 41.7803 20.8526 42.0596C21.335 42.3389 22.1983 41.8311 23.4424 40.5361C25.4229 38.251 27.5557 33.8076 29.8409 27.2061C29.7393 26.3682 29.8662 25.0732 30.2217 23.3213C30.5772 21.5947 30.958 20.0586 31.3643 18.7129C31.7451 17.3418 31.961 16.6562 32.0117 16.6562C35.1348 16.6562 37.0899 16.8975 37.877 17.3799C38.2832 17.6846 38.461 18.04 38.4102 18.4463C38.3594 18.6748 38.169 19.335 37.8389 20.4268C37.4834 21.5186 37.2041 22.4834 37.001 23.3213C36.7979 24.1846 36.6455 25.124 36.544 26.1396C36.4424 27.1553 36.5821 27.9805 36.9629 28.6152C37.3438 29.2246 37.9532 29.5547 38.791 29.6055C38.0801 30.4941 37.2295 31.002 36.2393 31.1289C35.2491 31.2559 34.3985 31.1543 33.6875 30.8242C32.9766 30.4941 32.545 30.1387 32.3926 29.7578C29.6504 38.3398 26.1719 44.0146 21.9571 46.7822Z" fill="#028066"/>
<path d="M46.9795 19.3984C48.2237 19.043 49.4678 19.0176 50.7119 19.3223C51.9815 19.627 52.8701 20.1982 53.378 21.0361C54.7237 23.3213 54.8506 25.5049 53.7588 27.5869C52.7686 29.6182 51.1817 31.1289 48.9981 32.1191C46.8145 33.1094 45.0498 33.3379 43.7041 32.8047C43.0948 35.293 42.8916 37.4766 43.0948 39.3555C43.2979 41.082 43.8946 41.9961 44.8848 42.0977C45.7227 42.25 46.7637 41.8184 48.0078 40.8027C49.252 39.7871 50.3438 38.6318 51.2832 37.3369C53.2129 34.8994 55.0284 31.9922 56.7295 28.6152C57.0342 28.5137 57.2881 28.5518 57.4912 28.7295C57.669 28.9072 57.7071 29.2246 57.6055 29.6816C56.5137 32.5 55.1553 35.3945 53.5303 38.3652C51.3975 42.4023 49.3662 45.1572 47.4366 46.6299C46.5225 47.1885 45.4053 47.4805 44.085 47.5059C42.7901 47.5312 41.3809 46.998 39.8575 45.9062C38.3086 44.8145 37.1026 43.3037 36.2393 41.374C35.4014 39.6729 35.4522 37.1465 36.3916 33.7949C37.3057 30.4434 38.791 27.333 40.8477 24.4639C42.9043 21.5947 44.9483 19.9062 46.9795 19.3984ZM51.2071 26.1777C51.7657 25.4414 52.0196 24.4766 51.9688 23.2832C51.918 22.0898 51.3213 21.709 50.1787 22.1406C47.792 23.0547 45.8116 25.9619 44.2373 30.8623C46.9034 30.9131 49.2266 29.3516 51.2071 26.1777Z" fill="#028066"/>
<path d="M64.9561 0.507812L68.46 0.431641H68.7266C70.7578 0.482422 70.9102 3.2373 69.1836 8.69629C69.0313 9.22949 68.4346 11.248 67.3936 14.752C66.3526 18.2559 65.1338 22.5977 63.7373 27.7773C62.3155 32.957 61.4014 36.8164 60.9951 39.3555C60.7412 40.8789 60.8809 41.8311 61.4141 42.2119C61.9727 42.5928 62.9502 42.1865 64.3467 40.9932C65.5909 39.7998 66.8731 38.1748 68.1934 36.1182C69.5391 34.0615 70.5674 32.3096 71.2784 30.8623L72.3067 28.6914C72.5098 28.6406 72.6875 28.6152 72.8399 28.6152C72.9922 28.6152 73.0938 28.7041 73.1446 28.8818C73.1953 29.0596 73.1953 29.3008 73.1446 29.6055C73.3731 29.4531 73.0303 30.4814 72.1162 32.6904C71.2022 34.8994 69.8438 37.4385 68.041 40.3076C66.2637 43.1514 64.3848 45.3096 62.4043 46.7822C60.7285 47.9756 58.9004 48.0264 56.92 46.9346C54.9649 45.8428 53.9239 44.2559 53.7969 42.1738C53.6446 40.1426 54.0508 37.1465 55.0157 33.1855C55.9805 29.25 57.3897 24.4385 59.2432 18.751C61.0967 13.0381 62.0996 9.95312 62.252 9.49609L64.9561 0.507812Z" fill="#028066"/>
<path d="M87.6553 20.3506L89.0645 17.2275C89.166 17.1768 89.4326 17.1387 89.8643 17.1133C90.2705 17.0625 90.753 17.1641 91.3116 17.418C91.8955 17.6465 92.2891 17.9385 92.4922 18.2939C92.543 18.4463 91.9844 20.3125 90.8164 23.8926C89.6485 27.4473 89.1153 29.6436 89.2168 30.4814C87.1348 30.6846 85.7637 30.1895 85.1035 28.9961C84.6719 28.3613 85.294 26.1016 86.9698 22.2168C86.4873 21.8359 85.7002 21.7852 84.6084 22.0645C82.5772 22.5723 80.9649 24.2607 79.7715 27.1299C78.5782 29.9736 77.7784 32.8555 77.3721 35.7754C77.1182 38.3145 77.4229 40.2568 78.2862 41.6025C79.1748 42.9229 80.7364 42.9863 82.9707 41.793C85.1035 40.6504 87.3506 38.708 89.7119 35.9658C92.0987 33.249 93.9141 30.7988 95.1582 28.6152C95.4629 28.5137 95.7041 28.5518 95.8819 28.7295C96.0596 28.9072 96.0977 29.2246 95.9961 29.6816C94.6504 32.8047 92.5811 36.2578 89.7881 40.041C86.9698 43.7988 84.1514 46.249 81.333 47.3916C78.4385 48.5342 75.6455 47.8994 72.9541 45.4873C70.2881 43.0752 69.3106 39.8887 70.0215 35.9277C70.6055 32.7539 71.8877 29.5293 73.8682 26.2539C75.8487 22.9785 77.9053 20.8203 80.0381 19.7793C81.2315 19.2207 82.5391 18.9922 83.961 19.0938C85.3828 19.1953 86.6143 19.6143 87.6553 20.3506Z" fill="#028066"/>
<path d="M113.554 27.1299C113.935 29.5166 113.63 32.0049 112.64 34.5947C114.29 34.3408 115.687 33.5156 116.829 32.1191C117.972 30.6973 118.606 29.5547 118.733 28.6914C118.835 28.6914 118.962 28.7041 119.114 28.7295C119.267 28.7549 119.457 28.8564 119.686 29.0342C119.914 29.2119 119.978 29.4785 119.876 29.834C119.317 31.8145 118.289 33.5283 116.791 34.9756C115.318 36.3975 113.693 37.1338 111.916 37.1846C108.691 43.9893 104.591 47.4424 99.6143 47.5439C97.9385 47.5439 96.4532 47.0361 95.1582 46.0205C93.8633 45.0049 92.9239 43.6719 92.3399 42.0215C91.7305 39.9395 91.7432 37.6924 92.378 35.2803C93.0381 32.8428 94.0157 30.7227 95.3106 28.9199C94.7012 28.082 94.4727 27.1553 94.625 26.1396C94.7774 25.124 95.1075 24.1211 95.6153 23.1309C96.6563 21.0996 98.5098 19.8047 101.176 19.2461C103.816 18.6621 106.406 19.0684 108.945 20.4648C111.459 21.8359 112.995 24.0576 113.554 27.1299ZM106.851 33.5283C106.952 33.5791 107.181 33.1348 107.536 32.1953C107.866 31.2559 108.12 30.291 108.298 29.3008C108.476 28.3105 108.336 27.4727 107.879 26.7871C107.193 26.0762 106.165 25.6318 104.794 25.4541C103.423 25.251 102.204 25.3525 101.138 25.7588C100.071 26.1396 99.5889 26.6729 99.6905 27.3584C99.8428 28.0947 100.63 29.1357 102.052 30.4814C103.499 31.8271 105.099 32.8428 106.851 33.5283ZM105.708 35.7754C104.667 35.5723 103.258 34.9502 101.48 33.9092C99.7032 32.8682 98.4082 31.8525 97.5957 30.8623C96.3262 34.4424 95.9834 37.2227 96.5674 39.2031C96.8213 40.1934 97.3418 40.79 98.1289 40.9932C99.2715 41.3232 100.592 40.9932 102.09 40.0029C103.613 39.0127 104.819 37.6035 105.708 35.7754Z" fill="#028066"/>
<path d="M137.738 34.7471L138.5 33.1094C142.918 24.2734 146.46 19.8555 149.126 19.8555C151.132 19.8555 152.287 20.4775 152.592 21.7217C152.871 22.9912 152.693 24.7432 152.059 26.9775C150.713 33.0967 149.862 37.1719 149.507 39.2031C149.202 40.5488 149.189 41.4121 149.469 41.793C149.748 42.1484 150.129 42.2119 150.611 41.9834C151.068 41.7549 151.576 41.3232 152.135 40.6885C153.303 39.4443 154.445 37.8193 155.563 35.8135C156.68 33.8076 157.492 32.1318 158 30.7861L158.876 28.6914C159.181 28.5898 159.422 28.6279 159.6 28.8057C159.777 28.9834 159.79 29.3008 159.638 29.7578C159.384 30.748 159.016 32.0049 158.533 33.5283C158.076 35.0264 157.099 37.3115 155.601 40.3838C154.077 43.4561 152.516 45.5889 150.916 46.7822C149.139 47.9756 147.298 48.0264 145.394 46.9346C143.515 45.8428 142.512 44.2559 142.385 42.1738C142.334 41.1836 142.575 39.584 143.108 37.375C143.616 35.166 144.124 33.1729 144.632 31.3955C145.114 29.6436 145.355 28.7422 145.355 28.6914C145.203 28.2598 144.924 28.2471 144.518 28.6533C144.086 29.0342 143.604 29.6689 143.07 30.5576C142.512 31.4463 142.08 32.1826 141.775 32.7666C141.471 33.376 141.191 33.9092 140.938 34.3662C139.897 36.3467 138.868 38.4414 137.853 40.6504C136.837 42.8594 136.088 44.5605 135.605 45.7539L134.92 47.6201C132.305 47.8994 130.769 47.7725 130.312 47.2393C129.524 45.5889 129.359 43.5703 129.816 41.1836C130.248 38.8223 130.87 36.2451 131.683 33.4521C132.495 30.6338 132.851 29.0469 132.749 28.6914C132.571 28.2598 132.279 28.2471 131.873 28.6533C131.467 29.0342 130.984 29.6689 130.426 30.5576C129.893 31.4463 129.461 32.1826 129.131 32.7666C128.826 33.376 128.547 33.9092 128.293 34.3662C126.262 38.2256 124.23 42.6436 122.199 47.6201H122.047C119.762 47.8486 118.378 47.7979 117.896 47.4678C116.245 46.0205 115.89 42.3262 116.829 36.3848C117.591 32.5508 119.178 27.0664 121.59 19.9316L125.322 19.8555C126.363 19.9062 126.935 20.541 127.036 21.7598C127.138 23.0039 126.719 25.1494 125.779 28.1963C125.322 29.1357 124.599 32.3857 123.608 37.9463L125.855 33.1094C130.273 24.2734 133.815 19.8555 136.481 19.8555C138.513 19.8555 139.668 20.4775 139.947 21.7217C140.227 22.9912 140.062 24.7432 139.452 26.9775L137.738 34.7471Z" fill="#028066"/>
<path d="M167.179 19.3984C168.423 19.043 169.667 19.0176 170.911 19.3223C172.181 19.627 173.069 20.1982 173.577 21.0361C174.923 23.3213 175.05 25.5049 173.958 27.5869C172.968 29.6182 171.381 31.1289 169.197 32.1191C167.014 33.1094 165.249 33.3379 163.903 32.8047C163.294 35.293 163.091 37.4766 163.294 39.3555C163.497 41.082 164.094 41.9961 165.084 42.0977C165.922 42.25 166.963 41.8184 168.207 40.8027C169.451 39.7871 170.543 38.6318 171.482 37.3369C173.412 34.8994 175.228 31.9922 176.929 28.6152C177.233 28.5137 177.487 28.5518 177.69 28.7295C177.868 28.9072 177.906 29.2246 177.805 29.6816C176.713 32.5 175.355 35.3945 173.73 38.3652C171.597 42.4023 169.565 45.1572 167.636 46.6299C166.722 47.1885 165.605 47.4805 164.284 47.5059C162.989 47.5312 161.58 46.998 160.057 45.9062C158.508 44.8145 157.302 43.3037 156.439 41.374C155.601 39.6729 155.651 37.1465 156.591 33.7949C157.505 30.4434 158.99 27.333 161.047 24.4639C163.104 21.5947 165.147 19.9062 167.179 19.3984ZM171.406 26.1777C171.965 25.4414 172.219 24.4766 172.168 23.2832C172.117 22.0898 171.521 21.709 170.378 22.1406C167.991 23.0547 166.011 25.9619 164.437 30.8623C167.103 30.9131 169.426 29.3516 171.406 26.1777Z" fill="#028066"/>
</svg>
