<svg width="543" height="208" viewBox="0 0 543 208" fill="none" xmlns="http://www.w3.org/2000/svg">
<path d="M39.2603 33.0684H2.19702C1.74567 33.0684 1.51919 33.6258 1.82995 33.9531C9.53046 42.0645 11.947 55.3019 11.947 61.5684V125.068C11.947 133.378 5.69543 141.119 2.63753 144.751C2.36369 145.076 2.59662 145.568 3.02174 145.568H39.17C39.6749 145.568 39.8881 144.863 39.4928 144.549C33.32 139.643 30.567 129.718 29.947 125.068C29.2804 120.068 28.947 79.5684 29.447 61.5684C29.8883 45.6814 35.9125 37.3248 39.6126 34.092C39.9874 33.7645 39.7581 33.0684 39.2603 33.0684Z" fill="#028066"/>
<path d="M99.1704 107.54L86.947 145.568H52.3457C51.8468 145.604 51.3804 145.604 50.947 145.568H52.3457C54.6849 145.403 57.7379 144.481 61.447 143.068C66.7447 141.05 73.3206 137.837 80.1839 131.568C84.9405 127.224 88.9898 121.653 93.947 114.568C94.9504 113.134 96.7792 109.918 98.3482 107.174C98.6418 106.66 99.3514 106.977 99.1704 107.54Z" fill="#028066"/>
<path d="M263.367 188.207C244.997 129.337 223.127 60.3984 204.447 0.568359C209.977 0.568359 225.897 0.568359 225.897 0.568359L229.947 17.0684L252.447 88.5684C259.907 112.558 268.447 138.568 268.447 138.568L270.947 148.568C270.947 148.568 272.567 145.688 272.947 144.568C273.327 143.448 298.447 68.5684 298.447 68.5684L320.947 1.06833L327.947 1.56836C327.947 1.56836 284.797 129.317 264.647 188.417L263.367 188.197V188.207Z" fill="#028066"/>
<path d="M135.947 33.5714H161.94H169.798V56.5684C169.798 56.5684 170.846 55.7062 167.38 51.4579C165.741 49.4485 163.576 45.8881 158.917 42.7702C152.71 38.6159 148.641 37.2942 141.992 35.1045C136.904 33.429 135.947 33.5714 135.947 33.5714Z" fill="#028066"/>
<path d="M351.947 33.5714H377.94H385.798V56.5684C385.798 56.5684 386.846 55.7062 383.38 51.4579C381.741 49.4485 379.576 45.8881 374.917 42.7702C368.71 38.6159 364.641 37.2942 357.992 35.1045C352.904 33.429 351.947 33.5714 351.947 33.5714Z" fill="#028066"/>
<path d="M135.947 145.565H161.94H169.798V122.568C169.798 122.568 170.846 123.431 167.38 127.679C165.741 129.688 163.576 133.249 158.917 136.367C152.71 140.521 148.641 141.843 141.992 144.032C136.904 145.708 135.947 145.565 135.947 145.565Z" fill="#028066"/>
<path d="M351.947 145.565H377.94H385.798V122.568C385.798 122.568 386.846 123.431 383.38 127.679C381.741 129.688 379.576 133.249 374.917 136.367C368.71 140.521 364.641 141.843 357.992 144.032C352.904 145.708 351.947 145.565 351.947 145.565Z" fill="#028066"/>
<path d="M163.947 75.5684V93.5684C157.251 87.0684 145.877 86.6357 135.947 84.7511C145.84 82.7414 155.425 81.0684 163.947 75.5684Z" fill="#028066"/>
<path d="M379.947 75.5684V93.5684C373.251 87.0684 361.877 86.6357 351.947 84.7511C361.84 82.7414 371.425 81.0684 379.947 75.5684Z" fill="#028066"/>
<path d="M532.947 34.0684H509.947L510.947 72.5684C511.747 48.9684 525.947 37.0684 532.947 34.0684Z" fill="#028066"/>
<path d="M424.947 145.068H447.947L446.947 106.568C446.147 130.168 431.947 142.068 424.947 145.068Z" fill="#028066"/>
<path d="M418.447 35.0684V33.0684H451.947L514.947 113.068V145.568L444.447 56.5684C433.647 39.3684 426.28 35.0684 423.947 35.0684H418.447Z" fill="#028066"/>
<path d="M342.947 187.6C342.947 185.326 343.46 183.287 344.485 181.481C345.51 179.654 346.903 178.227 348.664 177.202C350.447 176.177 352.42 175.664 354.582 175.664C357.123 175.664 359.341 176.277 361.235 177.503C363.13 178.729 364.512 180.467 365.381 182.718H361.737C361.09 181.314 360.154 180.233 358.928 179.475C357.725 178.717 356.276 178.339 354.582 178.339C352.955 178.339 351.495 178.717 350.202 179.475C348.909 180.233 347.895 181.314 347.16 182.718C346.424 184.1 346.056 185.727 346.056 187.6C346.056 189.45 346.424 191.077 347.16 192.481C347.895 193.863 348.909 194.933 350.202 195.691C351.495 196.448 352.955 196.827 354.582 196.827C356.276 196.827 357.725 196.46 358.928 195.724C360.154 194.966 361.09 193.885 361.737 192.481H365.381C364.512 194.71 363.13 196.437 361.235 197.663C359.341 198.867 357.123 199.469 354.582 199.469C352.42 199.469 350.447 198.967 348.664 197.964C346.903 196.939 345.51 195.523 344.485 193.718C343.46 191.913 342.947 189.873 342.947 187.6Z" fill="#028066"/>
<path d="M368.773 190.04C368.773 188.168 369.152 186.53 369.91 185.126C370.668 183.699 371.704 182.596 373.019 181.816C374.357 181.036 375.839 180.645 377.466 180.645C379.071 180.645 380.464 180.991 381.645 181.682C382.827 182.373 383.707 183.242 384.287 184.29V180.946H387.362V199.268H384.287V195.858C383.685 196.928 382.782 197.819 381.578 198.533C380.397 199.223 379.015 199.569 377.433 199.569C375.805 199.569 374.334 199.168 373.019 198.365C371.704 197.563 370.668 196.437 369.91 194.989C369.152 193.54 368.773 191.89 368.773 190.04ZM384.287 190.074C384.287 188.692 384.008 187.488 383.451 186.463C382.893 185.438 382.136 184.658 381.177 184.123C380.241 183.565 379.205 183.287 378.068 183.287C376.931 183.287 375.895 183.554 374.958 184.089C374.022 184.624 373.276 185.404 372.718 186.43C372.161 187.455 371.883 188.658 371.883 190.04C371.883 191.445 372.161 192.67 372.718 193.718C373.276 194.743 374.022 195.535 374.958 196.092C375.895 196.627 376.931 196.894 378.068 196.894C379.205 196.894 380.241 196.627 381.177 196.092C382.136 195.535 382.893 194.743 383.451 193.718C384.008 192.67 384.287 191.456 384.287 190.074Z" fill="#028066"/>
<path d="M399.96 183.454H396.115V199.268H393.072V183.454H390.698V180.946H393.072V179.642C393.072 177.592 393.596 176.099 394.644 175.162C395.714 174.204 397.419 173.725 399.759 173.725V176.266C398.422 176.266 397.474 176.533 396.917 177.068C396.382 177.581 396.115 178.439 396.115 179.642V180.946H399.96V183.454Z" fill="#028066"/>
<path d="M420.224 189.405C420.224 189.985 420.19 190.598 420.124 191.244H405.48C405.591 193.049 406.204 194.465 407.318 195.49C408.455 196.493 409.826 196.995 411.431 196.995C412.746 196.995 413.838 196.694 414.707 196.092C415.599 195.468 416.223 194.643 416.58 193.618H419.856C419.366 195.379 418.385 196.816 416.914 197.931C415.443 199.023 413.615 199.569 411.431 199.569C409.692 199.569 408.132 199.179 406.75 198.399C405.39 197.619 404.321 196.515 403.54 195.089C402.76 193.64 402.37 191.968 402.37 190.074C402.37 188.179 402.749 186.519 403.507 185.092C404.265 183.666 405.324 182.574 406.683 181.816C408.065 181.036 409.648 180.645 411.431 180.645C413.169 180.645 414.707 181.024 416.045 181.782C417.382 182.54 418.407 183.588 419.121 184.925C419.856 186.24 420.224 187.733 420.224 189.405ZM417.081 188.77C417.081 187.611 416.825 186.619 416.312 185.794C415.799 184.947 415.097 184.312 414.206 183.889C413.336 183.443 412.367 183.22 411.297 183.22C409.759 183.22 408.444 183.71 407.352 184.691C406.282 185.672 405.669 187.031 405.513 188.77H417.081Z" fill="#028066"/>
<path d="M444.822 187.265C445.669 187.399 446.438 187.745 447.129 188.302C447.842 188.859 448.399 189.55 448.8 190.375C449.224 191.199 449.436 192.08 449.436 193.016C449.436 194.197 449.135 195.267 448.533 196.226C447.931 197.162 447.051 197.908 445.892 198.466C444.755 199.001 443.406 199.268 441.846 199.268H433.153V175.965H441.512C443.094 175.965 444.443 176.232 445.557 176.767C446.672 177.28 447.507 177.982 448.065 178.874C448.622 179.765 448.901 180.768 448.901 181.883C448.901 183.264 448.522 184.412 447.764 185.326C447.028 186.218 446.048 186.864 444.822 187.265ZM436.196 186.028H441.311C442.738 186.028 443.841 185.694 444.621 185.025C445.401 184.357 445.791 183.432 445.791 182.25C445.791 181.069 445.401 180.144 444.621 179.475C443.841 178.807 442.715 178.472 441.244 178.472H436.196V186.028ZM441.579 196.761C443.094 196.761 444.276 196.404 445.123 195.691C445.97 194.977 446.393 193.986 446.393 192.715C446.393 191.422 445.947 190.408 445.056 189.673C444.164 188.915 442.972 188.536 441.478 188.536H436.196V196.761H441.579Z" fill="#028066"/>
<path d="M452.521 190.04C452.521 188.168 452.9 186.53 453.658 185.126C454.415 183.699 455.452 182.596 456.767 181.816C458.104 181.036 459.586 180.645 461.214 180.645C462.818 180.645 464.211 180.991 465.393 181.682C466.574 182.373 467.455 183.242 468.034 184.29V180.946H471.11V199.268H468.034V195.858C467.432 196.928 466.53 197.819 465.326 198.533C464.145 199.223 462.763 199.569 461.18 199.569C459.553 199.569 458.082 199.168 456.767 198.365C455.452 197.563 454.415 196.437 453.658 194.989C452.9 193.54 452.521 191.89 452.521 190.04ZM468.034 190.074C468.034 188.692 467.755 187.488 467.198 186.463C466.641 185.438 465.883 184.658 464.925 184.123C463.989 183.565 462.952 183.287 461.815 183.287C460.679 183.287 459.642 183.554 458.706 184.089C457.77 184.624 457.023 185.404 456.466 186.43C455.909 187.455 455.63 188.658 455.63 190.04C455.63 191.445 455.909 192.67 456.466 193.718C457.023 194.743 457.77 195.535 458.706 196.092C459.642 196.627 460.679 196.894 461.815 196.894C462.952 196.894 463.989 196.627 464.925 196.092C465.883 195.535 466.641 194.743 467.198 193.718C467.755 192.67 468.034 191.456 468.034 190.074Z" fill="#028066"/>
<path d="M486.482 199.268L479.294 191.177V199.268H476.251V174.527H479.294V189.071L486.348 180.946H490.595L481.969 190.074L490.628 199.268H486.482Z" fill="#028066"/>
<path d="M510.175 189.405C510.175 189.985 510.141 190.598 510.075 191.244H495.431C495.542 193.049 496.155 194.465 497.269 195.49C498.406 196.493 499.777 196.995 501.382 196.995C502.697 196.995 503.789 196.694 504.658 196.092C505.55 195.468 506.174 194.643 506.531 193.618H509.807C509.317 195.379 508.336 196.816 506.865 197.931C505.394 199.023 503.566 199.569 501.382 199.569C499.643 199.569 498.083 199.179 496.701 198.399C495.341 197.619 494.272 196.515 493.491 195.089C492.711 193.64 492.321 191.968 492.321 190.074C492.321 188.179 492.7 186.519 493.458 185.092C494.216 183.666 495.275 182.574 496.634 181.816C498.016 181.036 499.599 180.645 501.382 180.645C503.12 180.645 504.658 181.024 505.996 181.782C507.333 182.54 508.358 183.588 509.072 184.925C509.807 186.24 510.175 187.733 510.175 189.405ZM507.032 188.77C507.032 187.611 506.776 186.619 506.263 185.794C505.751 184.947 505.048 184.312 504.157 183.889C503.288 183.443 502.318 183.22 501.248 183.22C499.71 183.22 498.395 183.71 497.303 184.691C496.233 185.672 495.62 187.031 495.464 188.77H507.032Z" fill="#028066"/>
<path d="M517.233 183.922C517.768 182.874 518.526 182.061 519.507 181.481C520.51 180.902 521.725 180.612 523.151 180.612V183.755H522.349C518.938 183.755 517.233 185.605 517.233 189.305V199.268H514.191V180.946H517.233V183.922Z" fill="#028066"/>
<path d="M542.444 180.946L531.411 207.894H528.268L531.879 199.067L524.49 180.946H527.867L533.617 195.791L539.301 180.946H542.444Z" fill="#028066"/>
<path d="M407.887 177.201L408.505 178.734L411.964 174.35L411.246 172.568L407.887 177.201Z" fill="#028066"/>
</svg>
