<svg xmlns="http://www.w3.org/2000/svg" width="50" height="50" viewBox="0 0 50 50" fill="none">
<path d="M46.6004 13.0161C46.6004 15.9717 46.5821 18.9296 46.5454 21.8898L40.9985 24.811L39.0808 23.8487V21.6905L33.3827 24.701L33.4377 34.7501L36.3246 33.1967V37.692L39.074 36.2623L39.0327 31.6364L37.3556 32.4269L35.4379 31.3821L35.4791 28.4883L38.9571 26.3713L43.528 29.1688L46.3599 27.5329L46.5317 36.8121L24.997 48.7377L20.5361 46.3457L20.5842 41.6648L22.1514 42.4209C22.0048 38.1044 21.9521 33.6618 21.9933 29.0932C21.9933 27.0312 22.0483 25.0585 22.1033 23.0858L25.0039 24.6323L27.8358 23.0583C27.8358 29.5148 27.8472 35.9667 27.8702 42.414L33.0734 39.4516L29.3548 37.3139V22.261L46.6004 13.0161Z" fill="#374151"/>
<path d="M5.03027 12.2185L24.9359 1.26221L44.9309 12.2598L40.4288 14.7205L24.9634 6.21799L9.41557 14.8305L5.03027 12.2185Z" fill="#374151"/>
<path d="M14.0059 17.0098L18.0406 14.6522L25.1409 18.4808L31.8013 14.5835L35.8705 17.0098L25.1066 23.0241L14.0059 17.0098Z" fill="#374151"/>
<path d="M17.2574 34.819L20.5841 33.0044V22.3573L7.21518 15.1401V18.9549L5.68927 18.2263V14.2191L3.49662 13.1743V21.4225L7.28392 23.3265C7.24268 24.3575 7.19456 25.3885 7.15332 26.4127L3.62034 24.5156L3.43476 28.9971L7.18082 30.9698V34.4684L3.40039 32.5301C3.43476 34.001 3.46225 35.4719 3.49662 36.9429L18.0547 44.8268V40.2215L11.3118 36.4067L11.3462 31.5059L17.2574 34.819ZM11.0025 26.5158C11.1056 24.9555 11.2018 23.3952 11.3049 21.8418L16.7212 24.7699L16.5357 29.4439L11.0025 26.5158Z" fill="#374151"/>
</svg>